<mxfile host="app.diagrams.net" modified="2022-01-31T18:18:24.926Z" agent="5.0 (X11)" etag="OeGnbxYA-KKqGTnvHDPc" version="16.5.2" type="github">
  <diagram name="Page-1" id="c4acf3e9-155e-7222-9cf6-157b1a14988f">
    <mxGraphModel dx="3731" dy="1063" grid="1" gridSize="10" guides="1" tooltips="1" connect="1" arrows="1" fold="1" page="1" pageScale="1" pageWidth="850" pageHeight="1100" background="none" math="0" shadow="0">
      <root>
        <mxCell id="0" />
        <mxCell id="1" parent="0" />
        <mxCell id="yN84901P-6v_qHCL0qZA-2" value="FileCrawler" style="swimlane;fontStyle=1;align=center;verticalAlign=top;childLayout=stackLayout;horizontal=1;startSize=26;horizontalStack=0;resizeParent=1;resizeParentMax=0;resizeLast=0;collapsible=1;marginBottom=0;" vertex="1" parent="1">
          <mxGeometry x="-1247.5" y="290" width="370" height="130" as="geometry">
            <mxRectangle x="330" y="280" width="100" height="26" as="alternateBounds" />
          </mxGeometry>
        </mxCell>
        <mxCell id="yN84901P-6v_qHCL0qZA-3" value="- lineConsumers: List&lt;Consumer&lt;String&gt;&gt;" style="text;strokeColor=none;fillColor=none;align=left;verticalAlign=top;spacingLeft=4;spacingRight=4;overflow=hidden;rotatable=0;points=[[0,0.5],[1,0.5]];portConstraint=eastwest;" vertex="1" parent="yN84901P-6v_qHCL0qZA-2">
          <mxGeometry y="26" width="370" height="26" as="geometry" />
        </mxCell>
        <mxCell id="yN84901P-6v_qHCL0qZA-4" value="" style="line;strokeWidth=1;fillColor=none;align=left;verticalAlign=middle;spacingTop=-1;spacingLeft=3;spacingRight=3;rotatable=0;labelPosition=right;points=[];portConstraint=eastwest;" vertex="1" parent="yN84901P-6v_qHCL0qZA-2">
          <mxGeometry y="52" width="370" height="8" as="geometry" />
        </mxCell>
        <mxCell id="yN84901P-6v_qHCL0qZA-5" value="+ attach(lineConsumer : Consumer&lt;String&gt;): void&#xa;+ detach(lineConsumer : Consumer&lt;String&gt;): Consumer&lt;String&gt;&#xa;+ crawl(File file): void&#xa;+ crawl(String fileContent): void&#xa;" style="text;strokeColor=none;fillColor=none;align=left;verticalAlign=top;spacingLeft=4;spacingRight=4;overflow=hidden;rotatable=0;points=[[0,0.5],[1,0.5]];portConstraint=eastwest;" vertex="1" parent="yN84901P-6v_qHCL0qZA-2">
          <mxGeometry y="60" width="370" height="70" as="geometry" />
        </mxCell>
        <mxCell id="yN84901P-6v_qHCL0qZA-13" value="«interface»&#xa;Counter&#xa;extends Consumer&lt;String&gt;" style="swimlane;fontStyle=1;align=center;verticalAlign=top;childLayout=stackLayout;horizontal=1;startSize=60;horizontalStack=0;resizeParent=1;resizeParentMax=0;resizeLast=0;collapsible=1;marginBottom=0;" vertex="1" parent="1">
          <mxGeometry x="-1157.5" y="440" width="190" height="120" as="geometry" />
        </mxCell>
        <mxCell id="yN84901P-6v_qHCL0qZA-16" value="+ accept(String line): void&#xa;+ getCount(): Number&#xa;+ reset(): void" style="text;strokeColor=none;fillColor=none;align=left;verticalAlign=top;spacingLeft=4;spacingRight=4;overflow=hidden;rotatable=0;points=[[0,0.5],[1,0.5]];portConstraint=eastwest;fontStyle=2" vertex="1" parent="yN84901P-6v_qHCL0qZA-13">
          <mxGeometry y="60" width="190" height="60" as="geometry" />
        </mxCell>
        <mxCell id="yN84901P-6v_qHCL0qZA-18" value="CounterLOC&#xa;implements Counter" style="swimlane;fontStyle=1;align=center;verticalAlign=top;childLayout=stackLayout;horizontal=1;startSize=42;horizontalStack=0;resizeParent=1;resizeParentMax=0;resizeLast=0;collapsible=1;marginBottom=0;" vertex="1" parent="1">
          <mxGeometry x="-1340" y="598" width="180" height="96" as="geometry" />
        </mxCell>
        <mxCell id="yN84901P-6v_qHCL0qZA-21" value="+ accept(String line): void&#xa;+ getCount(): Number&#xa;+ reset(): void" style="text;strokeColor=none;fillColor=none;align=left;verticalAlign=top;spacingLeft=4;spacingRight=4;overflow=hidden;rotatable=0;points=[[0,0.5],[1,0.5]];portConstraint=eastwest;" vertex="1" parent="yN84901P-6v_qHCL0qZA-18">
          <mxGeometry y="42" width="180" height="54" as="geometry" />
        </mxCell>
        <mxCell id="yN84901P-6v_qHCL0qZA-22" value="CounterCLOC&#xa;implements Counter" style="swimlane;fontStyle=1;align=center;verticalAlign=top;childLayout=stackLayout;horizontal=1;startSize=42;horizontalStack=0;resizeParent=1;resizeParentMax=0;resizeLast=0;collapsible=1;marginBottom=0;" vertex="1" parent="1">
          <mxGeometry x="-1150" y="598" width="175" height="96" as="geometry" />
        </mxCell>
        <mxCell id="yN84901P-6v_qHCL0qZA-25" value="+ accept(String line): void&#xa;+ getCount(): Number&#xa;+ reset(): void" style="text;strokeColor=none;fillColor=none;align=left;verticalAlign=top;spacingLeft=4;spacingRight=4;overflow=hidden;rotatable=0;points=[[0,0.5],[1,0.5]];portConstraint=eastwest;" vertex="1" parent="yN84901P-6v_qHCL0qZA-22">
          <mxGeometry y="42" width="175" height="54" as="geometry" />
        </mxCell>
        <mxCell id="yN84901P-6v_qHCL0qZA-26" value="«interface»&#xa;Metric" style="swimlane;fontStyle=1;align=center;verticalAlign=top;childLayout=stackLayout;horizontal=1;startSize=40;horizontalStack=0;resizeParent=1;resizeParentMax=0;resizeLast=0;collapsible=1;marginBottom=0;" vertex="1" parent="1">
          <mxGeometry x="-320" y="120" width="160" height="80" as="geometry" />
        </mxCell>
        <mxCell id="yN84901P-6v_qHCL0qZA-29" value="+ getName():String&#xa;+ getMetric(): Number" style="text;strokeColor=none;fillColor=none;align=left;verticalAlign=top;spacingLeft=4;spacingRight=4;overflow=hidden;rotatable=0;points=[[0,0.5],[1,0.5]];portConstraint=eastwest;fontStyle=2" vertex="1" parent="yN84901P-6v_qHCL0qZA-26">
          <mxGeometry y="40" width="160" height="40" as="geometry" />
        </mxCell>
        <mxCell id="yN84901P-6v_qHCL0qZA-30" value="&lt;&lt;Interface&gt;&gt;&#xa;MetricWriter&#xa;" style="swimlane;fontStyle=1;align=center;verticalAlign=top;childLayout=stackLayout;horizontal=1;startSize=40;horizontalStack=0;resizeParent=1;resizeParentMax=0;resizeLast=0;collapsible=1;marginBottom=0;" vertex="1" parent="1">
          <mxGeometry x="300" y="370" width="280" height="66" as="geometry" />
        </mxCell>
        <mxCell id="yN84901P-6v_qHCL0qZA-33" value="+ write(String filename, List&lt;Metric&gt; metrics): void" style="text;strokeColor=none;fillColor=none;align=left;verticalAlign=top;spacingLeft=4;spacingRight=4;overflow=hidden;rotatable=0;points=[[0,0.5],[1,0.5]];portConstraint=eastwest;fontStyle=2" vertex="1" parent="yN84901P-6v_qHCL0qZA-30">
          <mxGeometry y="40" width="280" height="26" as="geometry" />
        </mxCell>
        <mxCell id="yN84901P-6v_qHCL0qZA-34" value="MetricWriterCSV&#xa;implements MetricWriter&#xa;" style="swimlane;fontStyle=1;align=center;verticalAlign=top;childLayout=stackLayout;horizontal=1;startSize=44;horizontalStack=0;resizeParent=1;resizeParentMax=0;resizeLast=0;collapsible=1;marginBottom=0;" vertex="1" parent="1">
          <mxGeometry x="300" y="470" width="280" height="104" as="geometry" />
        </mxCell>
        <mxCell id="yN84901P-6v_qHCL0qZA-35" value="- file: File" style="text;strokeColor=none;fillColor=none;align=left;verticalAlign=top;spacingLeft=4;spacingRight=4;overflow=hidden;rotatable=0;points=[[0,0.5],[1,0.5]];portConstraint=eastwest;" vertex="1" parent="yN84901P-6v_qHCL0qZA-34">
          <mxGeometry y="44" width="280" height="26" as="geometry" />
        </mxCell>
        <mxCell id="yN84901P-6v_qHCL0qZA-36" value="" style="line;strokeWidth=1;fillColor=none;align=left;verticalAlign=middle;spacingTop=-1;spacingLeft=3;spacingRight=3;rotatable=0;labelPosition=right;points=[];portConstraint=eastwest;" vertex="1" parent="yN84901P-6v_qHCL0qZA-34">
          <mxGeometry y="70" width="280" height="8" as="geometry" />
        </mxCell>
        <mxCell id="yN84901P-6v_qHCL0qZA-37" value="+ write(String filename, List&lt;Metric&gt; metrics): void" style="text;strokeColor=none;fillColor=none;align=left;verticalAlign=top;spacingLeft=4;spacingRight=4;overflow=hidden;rotatable=0;points=[[0,0.5],[1,0.5]];portConstraint=eastwest;" vertex="1" parent="yN84901P-6v_qHCL0qZA-34">
          <mxGeometry y="78" width="280" height="26" as="geometry" />
        </mxCell>
        <mxCell id="yN84901P-6v_qHCL0qZA-46" value="«interface»&#xa;ClassMetric" style="swimlane;fontStyle=1;align=center;verticalAlign=top;childLayout=stackLayout;horizontal=1;startSize=40;horizontalStack=0;resizeParent=1;resizeParentMax=0;resizeLast=0;collapsible=1;marginBottom=0;" vertex="1" parent="1">
          <mxGeometry x="-530" y="220" width="160" height="110" as="geometry" />
        </mxCell>
        <mxCell id="yN84901P-6v_qHCL0qZA-47" value="+ getName():String&#xa;+ getMetric(): Number&#xa;+ getFile(): File&#xa;+ getClassName(): String&#xa;" style="text;strokeColor=none;fillColor=none;align=left;verticalAlign=top;spacingLeft=4;spacingRight=4;overflow=hidden;rotatable=0;points=[[0,0.5],[1,0.5]];portConstraint=eastwest;fontStyle=2" vertex="1" parent="yN84901P-6v_qHCL0qZA-46">
          <mxGeometry y="40" width="160" height="70" as="geometry" />
        </mxCell>
        <mxCell id="yN84901P-6v_qHCL0qZA-48" value="«interface»&#xa;PackageMetric" style="swimlane;fontStyle=1;align=center;verticalAlign=top;childLayout=stackLayout;horizontal=1;startSize=40;horizontalStack=0;resizeParent=1;resizeParentMax=0;resizeLast=0;collapsible=1;marginBottom=0;" vertex="1" parent="1">
          <mxGeometry x="-110" y="220" width="170" height="110" as="geometry" />
        </mxCell>
        <mxCell id="yN84901P-6v_qHCL0qZA-49" value="+ getName():String&#xa;+ getMetric(): Number&#xa;+ getDirectory(): File&#xa;+ getPackageName(): String&#xa;" style="text;strokeColor=none;fillColor=none;align=left;verticalAlign=top;spacingLeft=4;spacingRight=4;overflow=hidden;rotatable=0;points=[[0,0.5],[1,0.5]];portConstraint=eastwest;fontStyle=2" vertex="1" parent="yN84901P-6v_qHCL0qZA-48">
          <mxGeometry y="40" width="170" height="70" as="geometry" />
        </mxCell>
        <mxCell id="yN84901P-6v_qHCL0qZA-50" value="«abstract»&#xa;AbstractClassMetric&#xa;implements ClassMetric" style="swimlane;fontStyle=1;align=center;verticalAlign=top;childLayout=stackLayout;horizontal=1;startSize=60;horizontalStack=0;resizeParent=1;resizeParentMax=0;resizeLast=0;collapsible=1;marginBottom=0;rounded=0;strokeColor=default;" vertex="1" parent="1">
          <mxGeometry x="-540" y="350" width="180" height="120" as="geometry" />
        </mxCell>
        <mxCell id="yN84901P-6v_qHCL0qZA-62" value="+ AbstractClassMetric(File file)" style="text;strokeColor=none;fillColor=none;align=left;verticalAlign=top;spacingLeft=4;spacingRight=4;overflow=hidden;rotatable=0;points=[[0,0.5],[1,0.5]];portConstraint=eastwest;rounded=0;" vertex="1" parent="yN84901P-6v_qHCL0qZA-50">
          <mxGeometry y="60" width="180" height="26" as="geometry" />
        </mxCell>
        <mxCell id="yN84901P-6v_qHCL0qZA-63" value="" style="line;strokeWidth=1;fillColor=none;align=left;verticalAlign=middle;spacingTop=-1;spacingLeft=3;spacingRight=3;rotatable=0;labelPosition=right;points=[];portConstraint=eastwest;rounded=0;" vertex="1" parent="yN84901P-6v_qHCL0qZA-50">
          <mxGeometry y="86" width="180" height="8" as="geometry" />
        </mxCell>
        <mxCell id="yN84901P-6v_qHCL0qZA-51" value="- file: File" style="text;strokeColor=none;fillColor=none;align=left;verticalAlign=top;spacingLeft=4;spacingRight=4;overflow=hidden;rotatable=0;points=[[0,0.5],[1,0.5]];portConstraint=eastwest;rounded=0;" vertex="1" parent="yN84901P-6v_qHCL0qZA-50">
          <mxGeometry y="94" width="180" height="26" as="geometry" />
        </mxCell>
        <mxCell id="yN84901P-6v_qHCL0qZA-54" value="«abstract»&#xa;AbstractPackageMetric&#xa;implements PackageMetric" style="swimlane;fontStyle=1;align=center;verticalAlign=top;childLayout=stackLayout;horizontal=1;startSize=60;horizontalStack=0;resizeParent=1;resizeParentMax=0;resizeLast=0;collapsible=1;marginBottom=0;rounded=0;strokeColor=default;" vertex="1" parent="1">
          <mxGeometry x="-130" y="350" width="210" height="120" as="geometry" />
        </mxCell>
        <mxCell id="yN84901P-6v_qHCL0qZA-64" value="+ AbstractClassMetric(File directory)" style="text;strokeColor=none;fillColor=none;align=left;verticalAlign=top;spacingLeft=4;spacingRight=4;overflow=hidden;rotatable=0;points=[[0,0.5],[1,0.5]];portConstraint=eastwest;rounded=0;" vertex="1" parent="yN84901P-6v_qHCL0qZA-54">
          <mxGeometry y="60" width="210" height="26" as="geometry" />
        </mxCell>
        <mxCell id="yN84901P-6v_qHCL0qZA-65" value="" style="line;strokeWidth=1;fillColor=none;align=left;verticalAlign=middle;spacingTop=-1;spacingLeft=3;spacingRight=3;rotatable=0;labelPosition=right;points=[];portConstraint=eastwest;rounded=0;" vertex="1" parent="yN84901P-6v_qHCL0qZA-54">
          <mxGeometry y="86" width="210" height="8" as="geometry" />
        </mxCell>
        <mxCell id="yN84901P-6v_qHCL0qZA-55" value="- directory: File" style="text;strokeColor=none;fillColor=none;align=left;verticalAlign=top;spacingLeft=4;spacingRight=4;overflow=hidden;rotatable=0;points=[[0,0.5],[1,0.5]];portConstraint=eastwest;rounded=0;" vertex="1" parent="yN84901P-6v_qHCL0qZA-54">
          <mxGeometry y="94" width="210" height="26" as="geometry" />
        </mxCell>
        <mxCell id="yN84901P-6v_qHCL0qZA-66" value="ClassMetricLOC&#xa;extends AbstractClassMetric" style="swimlane;fontStyle=1;align=center;verticalAlign=top;childLayout=stackLayout;horizontal=1;startSize=40;horizontalStack=0;resizeParent=1;resizeParentMax=0;resizeLast=0;collapsible=1;marginBottom=0;rounded=0;strokeColor=default;" vertex="1" parent="1">
          <mxGeometry x="-640" y="490" width="180" height="110" as="geometry" />
        </mxCell>
        <mxCell id="yN84901P-6v_qHCL0qZA-71" value="+ getName():String&#xa;+ getMetric(): Number&#xa;+ getFile(): File&#xa;+ getClassName(): String&#xa;&#xa;&#xa;" style="text;strokeColor=none;fillColor=none;align=left;verticalAlign=top;spacingLeft=4;spacingRight=4;overflow=hidden;rotatable=0;points=[[0,0.5],[1,0.5]];portConstraint=eastwest;rounded=0;" vertex="1" parent="yN84901P-6v_qHCL0qZA-66">
          <mxGeometry y="40" width="180" height="70" as="geometry" />
        </mxCell>
        <mxCell id="yN84901P-6v_qHCL0qZA-72" value="ClassMetricCLOC&#xa;extends AbstractClassMetric" style="swimlane;fontStyle=1;align=center;verticalAlign=top;childLayout=stackLayout;horizontal=1;startSize=40;horizontalStack=0;resizeParent=1;resizeParentMax=0;resizeLast=0;collapsible=1;marginBottom=0;rounded=0;strokeColor=default;" vertex="1" parent="1">
          <mxGeometry x="-450" y="490" width="180" height="110" as="geometry" />
        </mxCell>
        <mxCell id="yN84901P-6v_qHCL0qZA-75" value="+ getName():String&#xa;+ getMetric(): Number&#xa;+ getFile(): File&#xa;+ getClassName(): String&#xa;&#xa;&#xa;" style="text;strokeColor=none;fillColor=none;align=left;verticalAlign=top;spacingLeft=4;spacingRight=4;overflow=hidden;rotatable=0;points=[[0,0.5],[1,0.5]];portConstraint=eastwest;rounded=0;" vertex="1" parent="yN84901P-6v_qHCL0qZA-72">
          <mxGeometry y="40" width="180" height="70" as="geometry" />
        </mxCell>
        <mxCell id="yN84901P-6v_qHCL0qZA-76" value="ClassMetricDC&#xa;extends AbstractClassMetric" style="swimlane;fontStyle=1;align=center;verticalAlign=top;childLayout=stackLayout;horizontal=1;startSize=40;horizontalStack=0;resizeParent=1;resizeParentMax=0;resizeLast=0;collapsible=1;marginBottom=0;rounded=0;strokeColor=default;" vertex="1" parent="1">
          <mxGeometry x="-640" y="610" width="180" height="110" as="geometry" />
        </mxCell>
        <mxCell id="yN84901P-6v_qHCL0qZA-77" value="+ getName():String&#xa;+ getMetric(): Number&#xa;+ getFile(): File&#xa;+ getClassName(): String&#xa;&#xa;&#xa;" style="text;strokeColor=none;fillColor=none;align=left;verticalAlign=top;spacingLeft=4;spacingRight=4;overflow=hidden;rotatable=0;points=[[0,0.5],[1,0.5]];portConstraint=eastwest;rounded=0;" vertex="1" parent="yN84901P-6v_qHCL0qZA-76">
          <mxGeometry y="40" width="180" height="70" as="geometry" />
        </mxCell>
        <mxCell id="yN84901P-6v_qHCL0qZA-78" value="ClassMetricWMC&#xa;extends AbstractClassMetric" style="swimlane;fontStyle=1;align=center;verticalAlign=top;childLayout=stackLayout;horizontal=1;startSize=40;horizontalStack=0;resizeParent=1;resizeParentMax=0;resizeLast=0;collapsible=1;marginBottom=0;rounded=0;strokeColor=default;" vertex="1" parent="1">
          <mxGeometry x="-450" y="610" width="180" height="110" as="geometry" />
        </mxCell>
        <mxCell id="yN84901P-6v_qHCL0qZA-79" value="+ getName():String&#xa;+ getMetric(): Number&#xa;+ getFile(): File&#xa;+ getClassName(): String&#xa;&#xa;&#xa;" style="text;strokeColor=none;fillColor=none;align=left;verticalAlign=top;spacingLeft=4;spacingRight=4;overflow=hidden;rotatable=0;points=[[0,0.5],[1,0.5]];portConstraint=eastwest;rounded=0;" vertex="1" parent="yN84901P-6v_qHCL0qZA-78">
          <mxGeometry y="40" width="180" height="70" as="geometry" />
        </mxCell>
        <mxCell id="yN84901P-6v_qHCL0qZA-80" value="ClassMetricBC&#xa;extends AbstractClassMetric" style="swimlane;fontStyle=1;align=center;verticalAlign=top;childLayout=stackLayout;horizontal=1;startSize=40;horizontalStack=0;resizeParent=1;resizeParentMax=0;resizeLast=0;collapsible=1;marginBottom=0;rounded=0;strokeColor=default;" vertex="1" parent="1">
          <mxGeometry x="-640" y="730" width="180" height="110" as="geometry" />
        </mxCell>
        <mxCell id="yN84901P-6v_qHCL0qZA-81" value="+ getName():String&#xa;+ getMetric(): Number&#xa;+ getFile(): File&#xa;+ getClassName(): String&#xa;&#xa;&#xa;" style="text;strokeColor=none;fillColor=none;align=left;verticalAlign=top;spacingLeft=4;spacingRight=4;overflow=hidden;rotatable=0;points=[[0,0.5],[1,0.5]];portConstraint=eastwest;rounded=0;" vertex="1" parent="yN84901P-6v_qHCL0qZA-80">
          <mxGeometry y="40" width="180" height="70" as="geometry" />
        </mxCell>
        <mxCell id="yN84901P-6v_qHCL0qZA-82" value="PackageMetricCLOC&#xa;extends AbstractPackageMetric" style="swimlane;fontStyle=1;align=center;verticalAlign=top;childLayout=stackLayout;horizontal=1;startSize=40;horizontalStack=0;resizeParent=1;resizeParentMax=0;resizeLast=0;collapsible=1;marginBottom=0;" vertex="1" parent="1">
          <mxGeometry x="-30" y="490" width="190" height="110" as="geometry" />
        </mxCell>
        <mxCell id="yN84901P-6v_qHCL0qZA-83" value="+ getName():String&#xa;+ getMetric(): Number&#xa;+ getDirectory(): File&#xa;+ getPackageName(): String&#xa;" style="text;strokeColor=none;fillColor=none;align=left;verticalAlign=top;spacingLeft=4;spacingRight=4;overflow=hidden;rotatable=0;points=[[0,0.5],[1,0.5]];portConstraint=eastwest;fontStyle=0" vertex="1" parent="yN84901P-6v_qHCL0qZA-82">
          <mxGeometry y="40" width="190" height="70" as="geometry" />
        </mxCell>
        <mxCell id="yN84901P-6v_qHCL0qZA-84" value="PackageMetricLOC&#xa;extends AbstractPackageMetric" style="swimlane;fontStyle=1;align=center;verticalAlign=top;childLayout=stackLayout;horizontal=1;startSize=40;horizontalStack=0;resizeParent=1;resizeParentMax=0;resizeLast=0;collapsible=1;marginBottom=0;" vertex="1" parent="1">
          <mxGeometry x="-230" y="490" width="190" height="110" as="geometry" />
        </mxCell>
        <mxCell id="yN84901P-6v_qHCL0qZA-85" value="+ getName():String&#xa;+ getMetric(): Number&#xa;+ getDirectory(): File&#xa;+ getPackageName(): String&#xa;" style="text;strokeColor=none;fillColor=none;align=left;verticalAlign=top;spacingLeft=4;spacingRight=4;overflow=hidden;rotatable=0;points=[[0,0.5],[1,0.5]];portConstraint=eastwest;fontStyle=0" vertex="1" parent="yN84901P-6v_qHCL0qZA-84">
          <mxGeometry y="40" width="190" height="70" as="geometry" />
        </mxCell>
        <mxCell id="yN84901P-6v_qHCL0qZA-86" value="PackageMetricDC&#xa;extends AbstractPackageMetric" style="swimlane;fontStyle=1;align=center;verticalAlign=top;childLayout=stackLayout;horizontal=1;startSize=40;horizontalStack=0;resizeParent=1;resizeParentMax=0;resizeLast=0;collapsible=1;marginBottom=0;" vertex="1" parent="1">
          <mxGeometry x="-230" y="610" width="190" height="110" as="geometry" />
        </mxCell>
        <mxCell id="yN84901P-6v_qHCL0qZA-87" value="+ getName():String&#xa;+ getMetric(): Number&#xa;+ getDirectory(): File&#xa;+ getPackageName(): String&#xa;" style="text;strokeColor=none;fillColor=none;align=left;verticalAlign=top;spacingLeft=4;spacingRight=4;overflow=hidden;rotatable=0;points=[[0,0.5],[1,0.5]];portConstraint=eastwest;fontStyle=0" vertex="1" parent="yN84901P-6v_qHCL0qZA-86">
          <mxGeometry y="40" width="190" height="70" as="geometry" />
        </mxCell>
        <mxCell id="yN84901P-6v_qHCL0qZA-88" value="PackageMetricWMC&#xa;extends AbstractPackageMetric" style="swimlane;fontStyle=1;align=center;verticalAlign=top;childLayout=stackLayout;horizontal=1;startSize=40;horizontalStack=0;resizeParent=1;resizeParentMax=0;resizeLast=0;collapsible=1;marginBottom=0;" vertex="1" parent="1">
          <mxGeometry x="-30" y="610" width="190" height="110" as="geometry" />
        </mxCell>
        <mxCell id="yN84901P-6v_qHCL0qZA-89" value="+ getName():String&#xa;+ getMetric(): Number&#xa;+ getDirectory(): File&#xa;+ getPackageName(): String&#xa;" style="text;strokeColor=none;fillColor=none;align=left;verticalAlign=top;spacingLeft=4;spacingRight=4;overflow=hidden;rotatable=0;points=[[0,0.5],[1,0.5]];portConstraint=eastwest;fontStyle=0" vertex="1" parent="yN84901P-6v_qHCL0qZA-88">
          <mxGeometry y="40" width="190" height="70" as="geometry" />
        </mxCell>
        <mxCell id="yN84901P-6v_qHCL0qZA-90" value="PackageMetricBC&#xa;extends AbstractPackageMetric" style="swimlane;fontStyle=1;align=center;verticalAlign=top;childLayout=stackLayout;horizontal=1;startSize=40;horizontalStack=0;resizeParent=1;resizeParentMax=0;resizeLast=0;collapsible=1;marginBottom=0;" vertex="1" parent="1">
          <mxGeometry x="-230" y="730" width="190" height="110" as="geometry" />
        </mxCell>
        <mxCell id="yN84901P-6v_qHCL0qZA-91" value="+ getName():String&#xa;+ getMetric(): Number&#xa;+ getDirectory(): File&#xa;+ getPackageName(): String&#xa;" style="text;strokeColor=none;fillColor=none;align=left;verticalAlign=top;spacingLeft=4;spacingRight=4;overflow=hidden;rotatable=0;points=[[0,0.5],[1,0.5]];portConstraint=eastwest;fontStyle=0" vertex="1" parent="yN84901P-6v_qHCL0qZA-90">
          <mxGeometry y="40" width="190" height="70" as="geometry" />
        </mxCell>
        <mxCell id="yN84901P-6v_qHCL0qZA-92" value="CounterWMC&#xa;implements Counter" style="swimlane;fontStyle=1;align=center;verticalAlign=top;childLayout=stackLayout;horizontal=1;startSize=42;horizontalStack=0;resizeParent=1;resizeParentMax=0;resizeLast=0;collapsible=1;marginBottom=0;" vertex="1" parent="1">
          <mxGeometry x="-960" y="598" width="175" height="96" as="geometry" />
        </mxCell>
        <mxCell id="yN84901P-6v_qHCL0qZA-93" value="+ accept(String line): void&#xa;+ getCount(): Number&#xa;+ reset(): void" style="text;strokeColor=none;fillColor=none;align=left;verticalAlign=top;spacingLeft=4;spacingRight=4;overflow=hidden;rotatable=0;points=[[0,0.5],[1,0.5]];portConstraint=eastwest;" vertex="1" parent="yN84901P-6v_qHCL0qZA-92">
          <mxGeometry y="42" width="175" height="54" as="geometry" />
        </mxCell>
        <mxCell id="yN84901P-6v_qHCL0qZA-95" value="App" style="swimlane;fontStyle=1;align=center;verticalAlign=top;childLayout=stackLayout;horizontal=1;startSize=26;horizontalStack=0;resizeParent=1;resizeParentMax=0;resizeLast=0;collapsible=1;marginBottom=0;rounded=0;strokeColor=default;" vertex="1" parent="1">
          <mxGeometry x="-1650" y="455" width="160" height="52" as="geometry" />
        </mxCell>
        <mxCell id="yN84901P-6v_qHCL0qZA-98" value="+ main(String[] args): void" style="text;strokeColor=none;fillColor=none;align=left;verticalAlign=top;spacingLeft=4;spacingRight=4;overflow=hidden;rotatable=0;points=[[0,0.5],[1,0.5]];portConstraint=eastwest;rounded=0;" vertex="1" parent="yN84901P-6v_qHCL0qZA-95">
          <mxGeometry y="26" width="160" height="26" as="geometry" />
        </mxCell>
      </root>
    </mxGraphModel>
  </diagram>
</mxfile>
